<svg width="14" height="14" viewBox="0 0 14 14" fill="none" xmlns="http://www.w3.org/2000/svg">
  <path fill-rule="evenodd" clip-rule="evenodd"
    d="M8.87774 4.06524C8.91838 4.0245 8.96666 3.99217 9.01981 3.97011C9.07296 3.94806 9.12994 3.93671 9.18749 3.93671C9.24503 3.93671 9.30202 3.94806 9.35517 3.97011C9.40832 3.99217 9.4566 4.0245 9.49724 4.06524L12.1222 6.69024C12.163 6.73088 12.1953 6.77916 12.2174 6.83231C12.2394 6.88546 12.2508 6.94244 12.2508 6.99999C12.2508 7.05753 12.2394 7.11452 12.2174 7.16767C12.1953 7.22082 12.163 7.2691 12.1222 7.30974L9.49724 9.93474C9.41509 10.0169 9.30367 10.063 9.18749 10.063C9.07131 10.063 8.95989 10.0169 8.87774 9.93474C8.79559 9.85259 8.74944 9.74117 8.74944 9.62499C8.74944 9.50881 8.79559 9.39739 8.87774 9.31524L11.1939 6.99999L8.87774 4.68474C8.837 4.6441 8.80467 4.59582 8.78262 4.54267C8.76056 4.48952 8.74921 4.43253 8.74921 4.37499C8.74921 4.31744 8.76056 4.26046 8.78262 4.20731C8.80467 4.15416 8.837 4.10588 8.87774 4.06524Z"
    fill="currentColor" />
  <path fill-rule="evenodd" clip-rule="evenodd"
    d="M1.75 7C1.75 6.88397 1.79609 6.77269 1.87814 6.69064C1.96019 6.60859 2.07147 6.5625 2.1875 6.5625H11.375C11.491 6.5625 11.6023 6.60859 11.6844 6.69064C11.7664 6.77269 11.8125 6.88397 11.8125 7C11.8125 7.11603 11.7664 7.22731 11.6844 7.30936C11.6023 7.39141 11.491 7.4375 11.375 7.4375H2.1875C2.07147 7.4375 1.96019 7.39141 1.87814 7.30936C1.79609 7.22731 1.75 7.11603 1.75 7Z"
    fill="currentColor" />
</svg>