<svg width="413" height="331" viewBox="0 0 413 331" fill="none" xmlns="http://www.w3.org/2000/svg">
<g style="mix-blend-mode:overlay">
<path fill-rule="evenodd" clip-rule="evenodd" d="M6.57883e-05 42.2401C-2.15601e-05 42.2467 -2.18746e-05 42.2533 6.45264e-05 42.2599V288.561C6.45264e-05 311.555 18.8099 330.365 41.8034 330.365H370.218C393.212 330.365 412.022 311.555 412.022 288.561V42.2602C412.022 42.2534 412.022 42.2468 412.022 42.24C412.016 19.2512 393.208 0.447021 370.218 0.447021H41.8034C18.8133 0.447021 0.00569033 19.2512 6.57883e-05 42.2401ZM1.50498 41.8607C1.71606 19.8747 19.77 1.95006 41.8034 1.95006H370.218C392.252 1.95006 410.305 19.8747 410.517 41.8607L206.011 185.015L1.50498 41.8607ZM410.518 43.6941V288.561C410.518 310.725 392.382 328.862 370.218 328.862H41.8034C19.64 328.862 1.50311 310.725 1.50311 288.561V43.6941L205.58 186.548C205.839 186.729 206.183 186.729 206.442 186.548L410.518 43.6941Z" fill="#EDF2F4"/>
</g>
</svg>
