<svg width="33" height="33" viewBox="0 0 33 33" fill="none" xmlns="http://www.w3.org/2000/svg">
<path d="M19.9375 13.75C18.7963 13.75 17.875 12.8287 17.875 11.6875V4.8125C17.875 3.67125 18.7963 2.75 19.9375 2.75C21.0787 2.75 22 3.67125 22 4.8125V11.6875C22 12.8287 21.0787 13.75 19.9375 13.75Z" stroke="#EDF2F4" stroke-width="1.33333" stroke-linecap="round" stroke-linejoin="round"/>
<path d="M28.1875 13.75H26.125V11.6875C26.125 10.5463 27.0463 9.625 28.1875 9.625C29.3287 9.625 30.25 10.5463 30.25 11.6875C30.25 12.8287 29.3287 13.75 28.1875 13.75Z" stroke="#EDF2F4" stroke-width="1.33333" stroke-linecap="round" stroke-linejoin="round"/>
<path d="M13.0625 19.25C14.2037 19.25 15.125 20.1713 15.125 21.3125V28.1875C15.125 29.3288 14.2037 30.25 13.0625 30.25C11.9213 30.25 11 29.3288 11 28.1875V21.3125C11 20.1713 11.9213 19.25 13.0625 19.25Z" stroke="#EDF2F4" stroke-width="1.33333" stroke-linecap="round" stroke-linejoin="round"/>
<path d="M4.8125 19.25H6.875V21.3125C6.875 22.4537 5.95375 23.375 4.8125 23.375C3.67125 23.375 2.75 22.4537 2.75 21.3125C2.75 20.1713 3.67125 19.25 4.8125 19.25Z" stroke="#EDF2F4" stroke-width="1.33333" stroke-linecap="round" stroke-linejoin="round"/>
<path d="M19.25 19.9375C19.25 18.7963 20.1713 17.875 21.3125 17.875H28.1875C29.3287 17.875 30.25 18.7963 30.25 19.9375C30.25 21.0787 29.3287 22 28.1875 22H21.3125C20.1713 22 19.25 21.0787 19.25 19.9375Z" stroke="#EDF2F4" stroke-width="1.33333" stroke-linecap="round" stroke-linejoin="round"/>
<path d="M21.3125 26.125H19.25V28.1875C19.25 29.3287 20.1713 30.25 21.3125 30.25C22.4537 30.25 23.375 29.3287 23.375 28.1875C23.375 27.0463 22.4537 26.125 21.3125 26.125Z" stroke="#EDF2F4" stroke-width="1.33333" stroke-linecap="round" stroke-linejoin="round"/>
<path d="M13.75 13.0625C13.75 11.9213 12.8287 11 11.6875 11H4.8125C3.67125 11 2.75 11.9213 2.75 13.0625C2.75 14.2037 3.67125 15.125 4.8125 15.125H11.6875C12.8287 15.125 13.75 14.2037 13.75 13.0625Z" stroke="#EDF2F4" stroke-width="1.33333" stroke-linecap="round" stroke-linejoin="round"/>
<path d="M11.6875 6.875H13.75V4.8125C13.75 3.67125 12.8287 2.75 11.6875 2.75C10.5463 2.75 9.625 3.67125 9.625 4.8125C9.625 5.95375 10.5463 6.875 11.6875 6.875Z" stroke="#EDF2F4" stroke-width="1.33333" stroke-linecap="round" stroke-linejoin="round"/>
</svg>
