<svg width="33" height="33" viewBox="0 0 33 33" fill="none" xmlns="http://www.w3.org/2000/svg">
<path d="M30.9926 8.8275C30.8292 8.17494 30.4966 7.57704 30.0282 7.09418C29.5598 6.61133 28.9723 6.26063 28.3251 6.0775C25.9601 5.5 16.5001 5.5 16.5001 5.5C16.5001 5.5 7.04005 5.5 4.67505 6.1325C4.02777 6.31563 3.44027 6.66633 2.97191 7.14918C2.50354 7.63204 2.17089 8.22994 2.00755 8.8825C1.57472 11.2826 1.363 13.7174 1.37505 16.1563C1.35963 18.6134 1.57136 21.0668 2.00755 23.485C2.18762 24.1173 2.52773 24.6925 2.995 25.1549C3.46228 25.6174 4.04093 25.9515 4.67505 26.125C7.04005 26.7575 16.5001 26.7575 16.5001 26.7575C16.5001 26.7575 25.9601 26.7575 28.3251 26.125C28.9723 25.9419 29.5598 25.5912 30.0282 25.1083C30.4966 24.6255 30.8292 24.0276 30.9926 23.375C31.422 20.9929 31.6338 18.5767 31.6251 16.1563C31.6405 13.6991 31.4288 11.2457 30.9926 8.8275V8.8275Z" stroke="#EDF2F4" stroke-width="1.33333" stroke-linecap="round" stroke-linejoin="round"/>
<path d="M13.4062 20.6524L21.3125 16.1562L13.4062 11.6599V20.6524Z" stroke="#EDF2F4" stroke-width="1.33333" stroke-linecap="round" stroke-linejoin="round"/>
</svg>
